<svg width="32" height="32" viewBox="0 0 32 32" fill="none" xmlns="http://www.w3.org/2000/svg">
<path d="M15.9998 29.42C9.77717 21.3 6.6665 15.5226 6.6665 12.0866C6.6665 10.861 6.90792 9.64729 7.37696 8.51492C7.84601 7.38255 8.53349 6.35365 9.40017 5.48697C10.2669 4.62029 11.2958 3.9328 12.4281 3.46375C13.5605 2.99471 14.7742 2.7533 15.9998 2.7533C17.2255 2.7533 18.4392 2.99471 19.5716 3.46375C20.7039 3.9328 21.7328 4.62029 22.5995 5.48697C23.4662 6.35365 24.1537 7.38255 24.6227 8.51492C25.0918 9.64729 25.3332 10.861 25.3332 12.0866C25.3332 15.5226 22.2225 21.3 15.9998 29.42ZM15.9998 17.42C17.4143 17.42 18.7709 16.8581 19.7711 15.8579C20.7713 14.8577 21.3332 13.5011 21.3332 12.0866C21.3332 10.6721 20.7713 9.31559 19.7711 8.31539C18.7709 7.3152 17.4143 6.7533 15.9998 6.7533C14.5853 6.7533 13.2288 7.3152 12.2286 8.31539C11.2284 9.31559 10.6665 10.6721 10.6665 12.0866C10.6665 13.5011 11.2284 14.8577 12.2286 15.8579C13.2288 16.8581 14.5853 17.42 15.9998 17.42Z" fill="#FF002E"/>
</svg>
