<svg width="24" height="24" viewBox="0 0 24 24" fill="none" xmlns="http://www.w3.org/2000/svg">
<g clip-path="url(#clip0)">
<path d="M11.41 0C8.86 0 6.97 0.78 5.77 1.98C4.57 3.18 4.15 4.68 4 5.82L7 6.21C7.12 5.46 7.36 4.71 7.93 4.14C8.5 3.57 9.4 3 11.41 3C13.39 3 14.47 3.48 15.07 4.02C15.67 4.56 15.91 5.22 15.91 6C15.91 8.49 14.89 9.18 13.39 10.5C11.89 11.82 9.91 13.74 9.91 17.25V18H12.91V17.25C12.91 14.76 13.84 14.07 15.34 12.75C16.84 11.43 18.91 9.51 18.91 6C18.91 4.56 18.4 2.94 17.14 1.77C15.85 0.6 13.93 0 11.41 0ZM9.91 21V24H12.91V21H9.91Z" fill="white"/>
</g>
<defs>
<clipPath id="clip0">
<rect width="24" height="24" fill="white"/>
</clipPath>
</defs>
</svg>
