<svg width="82" height="82" viewBox="0 0 82 82" fill="none" xmlns="http://www.w3.org/2000/svg">
<g clip-path="url(#clip0)">
<path d="M73.8 1.31201H8.20001C4.39587 1.31201 1.31201 4.39587 1.31201 8.20001V73.8C1.31201 77.6041 4.39587 80.688 8.20001 80.688H73.8C77.6041 80.688 80.688 77.6041 80.688 73.8V8.20001C80.688 4.39587 77.6041 1.31201 73.8 1.31201Z" fill="url(#paint0_linear)" stroke="white" stroke-width="8"/>
<path d="M38.4245 47.0834L27.9184 46.2506L26.2528 60.2162L20.4231 60.4724L17.9888 25.8787L41.1794 25.174L40.9872 28.6975L29.9044 29.9787L28.3669 42.4708L38.1044 42.3429L38.4245 47.0834ZM49.5077 60.7929L46.881 34.7834L58.0918 33.1179L54.6966 60.3445L49.5077 60.7929ZM48.4823 29.0178C47.5429 28.0355 47.0733 26.8823 47.0733 25.5584C47.0733 24.1917 47.5429 23.0386 48.4823 22.099C49.4647 21.1594 50.6179 20.6896 51.9418 20.6896C53.2659 20.6896 54.3975 21.1594 55.3372 22.099C56.3196 23.0386 56.8106 24.1917 56.8106 25.5584C56.8106 26.8823 56.3196 28.0355 55.3372 29.0178C54.3975 29.9573 53.2659 30.4271 51.9418 30.4271C50.6179 30.4271 49.4647 29.9573 48.4823 29.0178Z" fill="white"/>
</g>
<defs>
<linearGradient id="paint0_linear" x1="41" y1="1.16584e-05" x2="41" y2="82" gradientUnits="userSpaceOnUse">
<stop stop-color="#416BDE" stop-opacity="0.82"/>
<stop offset="1" stop-color="#E162C0"/>
</linearGradient>
<clipPath id="clip0">
<rect width="82" height="82" fill="white"/>
</clipPath>
</defs>
</svg>
