<svg width="56" height="56" viewBox="0 0 56 56" fill="none" xmlns="http://www.w3.org/2000/svg">
<path d="M28 0C12.5375 0 0 12.5375 0 28C0 43.4625 12.5375 56 28 56C43.4625 56 56 43.4625 56 28C56 12.5375 43.4625 0 28 0ZM37.6688 28.4062L22.2938 39.5312C21.9625 39.7687 21.5 39.5312 21.5 39.125V36.1937C21.5 35.5562 21.8063 34.95 22.325 34.575L31.4125 28L22.325 21.425C21.8063 21.05 21.5 20.45 21.5 19.8062V16.875C21.5 16.4688 21.9625 16.2313 22.2938 16.4688L37.6688 27.5938C37.9438 27.7938 37.9438 28.2062 37.6688 28.4062Z" fill="#FF002E"/>
</svg>
