<svg width="200" height="200" viewBox="0 0 200 200" fill="none" xmlns="http://www.w3.org/2000/svg">
<rect width="200" height="200" rx="20" fill="white"/>
<path d="M129.25 75.25H70.75C69.5055 75.25 68.5 76.2555 68.5 77.5V122.5C68.5 123.745 69.5055 124.75 70.75 124.75H129.25C130.495 124.75 131.5 123.745 131.5 122.5V77.5C131.5 76.2555 130.495 75.25 129.25 75.25ZM73.5625 80.3125H126.438V88.75H73.5625V80.3125ZM126.438 119.688H73.5625V94.9375H126.438V119.688ZM109.773 115.188H121.375C121.684 115.188 121.938 114.934 121.938 114.625V109.562C121.938 109.253 121.684 109 121.375 109H109.773C109.464 109 109.211 109.253 109.211 109.562V114.625C109.211 114.934 109.464 115.188 109.773 115.188Z" fill="#3F6BDE"/>
</svg>
